<svg id="visual" viewBox="0 0 900 600" width="900" height="600" xmlns="http://www.w3.org/2000/svg" xmlns:xlink="http://www.w3.org/1999/xlink" version="1.1"><path d="M399 600L405.7 580C412.3 560 425.7 520 448 480C470.3 440 501.7 400 511.5 360C521.3 320 509.7 280 483 240C456.3 200 414.7 160 402.7 120C390.7 80 408.3 40 417.2 20L426 0L900 0L900 20C900 40 900 80 900 120C900 160 900 200 900 240C900 280 900 320 900 360C900 400 900 440 900 480C900 520 900 560 900 580L900 600Z" fill="#2f3283" stroke-linecap="round" stroke-linejoin="miter"></path></svg>