<svg id="visual" viewBox="0 0 900 600" width="900" height="600" xmlns="http://www.w3.org/2000/svg" xmlns:xlink="http://www.w3.org/1999/xlink" version="1.1"><rect x="0" y="0" width="900" height="600" fill="#001220"></rect><path d="M0 380L21.5 387.3C43 394.7 86 409.3 128.8 409.2C171.7 409 214.3 394 257.2 385.2C300 376.3 343 373.7 385.8 374.5C428.7 375.3 471.3 379.7 514.2 384.5C557 389.3 600 394.7 642.8 394.7C685.7 394.7 728.3 389.3 771.2 392.5C814 395.7 857 407.3 878.5 413.2L900 419L900 601L878.5 601C857 601 814 601 771.2 601C728.3 601 685.7 601 642.8 601C600 601 557 601 514.2 601C471.3 601 428.7 601 385.8 601C343 601 300 601 257.2 601C214.3 601 171.7 601 128.8 601C86 601 43 601 21.5 601L0 601Z" fill="#fa7268"></path><path d="M0 422L21.5 422C43 422 86 422 128.8 419C171.7 416 214.3 410 257.2 418.7C300 427.3 343 450.7 385.8 451.3C428.7 452 471.3 430 514.2 424.5C557 419 600 430 642.8 437.2C685.7 444.3 728.3 447.7 771.2 450.5C814 453.3 857 455.7 878.5 456.8L900 458L900 601L878.5 601C857 601 814 601 771.2 601C728.3 601 685.7 601 642.8 601C600 601 557 601 514.2 601C471.3 601 428.7 601 385.8 601C343 601 300 601 257.2 601C214.3 601 171.7 601 128.8 601C86 601 43 601 21.5 601L0 601Z" fill="#ef5f67"></path><path d="M0 460L21.5 460C43 460 86 460 128.8 463.3C171.7 466.7 214.3 473.3 257.2 471.2C300 469 343 458 385.8 459.8C428.7 461.7 471.3 476.3 514.2 476.8C557 477.3 600 463.7 642.8 455.7C685.7 447.7 728.3 445.3 771.2 445.5C814 445.7 857 448.3 878.5 449.7L900 451L900 601L878.5 601C857 601 814 601 771.2 601C728.3 601 685.7 601 642.8 601C600 601 557 601 514.2 601C471.3 601 428.7 601 385.8 601C343 601 300 601 257.2 601C214.3 601 171.7 601 128.8 601C86 601 43 601 21.5 601L0 601Z" fill="#e34c67"></path><path d="M0 502L21.5 503.5C43 505 86 508 128.8 514.7C171.7 521.3 214.3 531.7 257.2 532.2C300 532.7 343 523.3 385.8 519.8C428.7 516.3 471.3 518.7 514.2 515.8C557 513 600 505 642.8 498.8C685.7 492.7 728.3 488.3 771.2 495.8C814 503.3 857 522.7 878.5 532.3L900 542L900 601L878.5 601C857 601 814 601 771.2 601C728.3 601 685.7 601 642.8 601C600 601 557 601 514.2 601C471.3 601 428.7 601 385.8 601C343 601 300 601 257.2 601C214.3 601 171.7 601 128.8 601C86 601 43 601 21.5 601L0 601Z" fill="#d53867"></path><path d="M0 544L21.5 541.3C43 538.7 86 533.3 128.8 536.7C171.7 540 214.3 552 257.2 556.3C300 560.7 343 557.3 385.8 551C428.7 544.7 471.3 535.3 514.2 534.7C557 534 600 542 642.8 545.7C685.7 549.3 728.3 548.7 771.2 544.7C814 540.7 857 533.3 878.5 529.7L900 526L900 601L878.5 601C857 601 814 601 771.2 601C728.3 601 685.7 601 642.8 601C600 601 557 601 514.2 601C471.3 601 428.7 601 385.8 601C343 601 300 601 257.2 601C214.3 601 171.7 601 128.8 601C86 601 43 601 21.5 601L0 601Z" fill="#c62368"></path></svg>