<svg id="visual" viewBox="0 0 900 600" width="900" height="600" xmlns="http://www.w3.org/2000/svg" xmlns:xlink="http://www.w3.org/1999/xlink" version="1.1"><rect x="0" y="0" width="900" height="600" fill="#001220"></rect><path d="M0 233L21.5 222C43 211 86 189 128.8 189.3C171.7 189.7 214.3 212.3 257.2 211.7C300 211 343 187 385.8 178.8C428.7 170.7 471.3 178.3 514.2 189.3C557 200.3 600 214.7 642.8 224C685.7 233.3 728.3 237.7 771.2 226.7C814 215.7 857 189.3 878.5 176.2L900 163L900 0L878.5 0C857 0 814 0 771.2 0C728.3 0 685.7 0 642.8 0C600 0 557 0 514.2 0C471.3 0 428.7 0 385.8 0C343 0 300 0 257.2 0C214.3 0 171.7 0 128.8 0C86 0 43 0 21.5 0L0 0Z" fill="#3940c4"></path><path d="M0 122L21.5 123.7C43 125.3 86 128.7 128.8 137C171.7 145.3 214.3 158.7 257.2 165.7C300 172.7 343 173.3 385.8 172.7C428.7 172 471.3 170 514.2 163.3C557 156.7 600 145.3 642.8 145.3C685.7 145.3 728.3 156.7 771.2 161C814 165.3 857 162.7 878.5 161.3L900 160L900 0L878.5 0C857 0 814 0 771.2 0C728.3 0 685.7 0 642.8 0C600 0 557 0 514.2 0C471.3 0 428.7 0 385.8 0C343 0 300 0 257.2 0C214.3 0 171.7 0 128.8 0C86 0 43 0 21.5 0L0 0Z" fill="#3137ae"></path><path d="M0 100L21.5 102.5C43 105 86 110 128.8 115.5C171.7 121 214.3 127 257.2 122.3C300 117.7 343 102.3 385.8 104.8C428.7 107.3 471.3 127.7 514.2 131.2C557 134.7 600 121.3 642.8 113.2C685.7 105 728.3 102 771.2 105.5C814 109 857 119 878.5 124L900 129L900 0L878.5 0C857 0 814 0 771.2 0C728.3 0 685.7 0 642.8 0C600 0 557 0 514.2 0C471.3 0 428.7 0 385.8 0C343 0 300 0 257.2 0C214.3 0 171.7 0 128.8 0C86 0 43 0 21.5 0L0 0Z" fill="#2a2f98"></path><path d="M0 59L21.5 62.2C43 65.3 86 71.7 128.8 78.7C171.7 85.7 214.3 93.3 257.2 91.8C300 90.3 343 79.7 385.8 73.2C428.7 66.7 471.3 64.3 514.2 65.7C557 67 600 72 642.8 80C685.7 88 728.3 99 771.2 103C814 107 857 104 878.5 102.5L900 101L900 0L878.5 0C857 0 814 0 771.2 0C728.3 0 685.7 0 642.8 0C600 0 557 0 514.2 0C471.3 0 428.7 0 385.8 0C343 0 300 0 257.2 0C214.3 0 171.7 0 128.8 0C86 0 43 0 21.5 0L0 0Z" fill="#222783"></path><path d="M0 58L21.5 55.8C43 53.7 86 49.3 128.8 50C171.7 50.7 214.3 56.3 257.2 54C300 51.7 343 41.3 385.8 36.2C428.7 31 471.3 31 514.2 35.5C557 40 600 49 642.8 50.3C685.7 51.7 728.3 45.3 771.2 40C814 34.7 857 30.3 878.5 28.2L900 26L900 0L878.5 0C857 0 814 0 771.2 0C728.3 0 685.7 0 642.8 0C600 0 557 0 514.2 0C471.3 0 428.7 0 385.8 0C343 0 300 0 257.2 0C214.3 0 171.7 0 128.8 0C86 0 43 0 21.5 0L0 0Z" fill="#1b1f6e"></path></svg>