<svg id="visual" viewBox="0 0 900 600" width="900" height="600" xmlns="http://www.w3.org/2000/svg" xmlns:xlink="http://www.w3.org/1999/xlink" version="1.1"><rect x="0" y="0" width="900" height="600" fill="#001220"></rect><path d="M0 104L18.8 103.2C37.7 102.3 75.3 100.7 112.8 107.2C150.3 113.7 187.7 128.3 225.2 133.7C262.7 139 300.3 135 337.8 128.5C375.3 122 412.7 113 450.2 108.7C487.7 104.3 525.3 104.7 562.8 109.7C600.3 114.7 637.7 124.3 675.2 128C712.7 131.7 750.3 129.3 787.8 123.8C825.3 118.3 862.7 109.7 881.3 105.3L900 101L900 0L881.3 0C862.7 0 825.3 0 787.8 0C750.3 0 712.7 0 675.2 0C637.7 0 600.3 0 562.8 0C525.3 0 487.7 0 450.2 0C412.7 0 375.3 0 337.8 0C300.3 0 262.7 0 225.2 0C187.7 0 150.3 0 112.8 0C75.3 0 37.7 0 18.8 0L0 0Z" fill="#3940c4"></path><path d="M0 119L18.8 110.8C37.7 102.7 75.3 86.3 112.8 80.5C150.3 74.7 187.7 79.3 225.2 84C262.7 88.7 300.3 93.3 337.8 94.3C375.3 95.3 412.7 92.7 450.2 94.3C487.7 96 525.3 102 562.8 99.2C600.3 96.3 637.7 84.7 675.2 78.7C712.7 72.7 750.3 72.3 787.8 72.3C825.3 72.3 862.7 72.7 881.3 72.8L900 73L900 0L881.3 0C862.7 0 825.3 0 787.8 0C750.3 0 712.7 0 675.2 0C637.7 0 600.3 0 562.8 0C525.3 0 487.7 0 450.2 0C412.7 0 375.3 0 337.8 0C300.3 0 262.7 0 225.2 0C187.7 0 150.3 0 112.8 0C75.3 0 37.7 0 18.8 0L0 0Z" fill="#3137ae"></path><path d="M0 63L18.8 68.2C37.7 73.3 75.3 83.7 112.8 86.3C150.3 89 187.7 84 225.2 78.7C262.7 73.3 300.3 67.7 337.8 63.3C375.3 59 412.7 56 450.2 55.7C487.7 55.3 525.3 57.7 562.8 63.5C600.3 69.3 637.7 78.7 675.2 77.7C712.7 76.7 750.3 65.3 787.8 62.8C825.3 60.3 862.7 66.7 881.3 69.8L900 73L900 0L881.3 0C862.7 0 825.3 0 787.8 0C750.3 0 712.7 0 675.2 0C637.7 0 600.3 0 562.8 0C525.3 0 487.7 0 450.2 0C412.7 0 375.3 0 337.8 0C300.3 0 262.7 0 225.2 0C187.7 0 150.3 0 112.8 0C75.3 0 37.7 0 18.8 0L0 0Z" fill="#2a2f98"></path><path d="M0 52L18.8 55C37.7 58 75.3 64 112.8 63.3C150.3 62.7 187.7 55.3 225.2 54.2C262.7 53 300.3 58 337.8 56.5C375.3 55 412.7 47 450.2 44.7C487.7 42.3 525.3 45.7 562.8 48.2C600.3 50.7 637.7 52.3 675.2 50C712.7 47.7 750.3 41.3 787.8 40.7C825.3 40 862.7 45 881.3 47.5L900 50L900 0L881.3 0C862.7 0 825.3 0 787.8 0C750.3 0 712.7 0 675.2 0C637.7 0 600.3 0 562.8 0C525.3 0 487.7 0 450.2 0C412.7 0 375.3 0 337.8 0C300.3 0 262.7 0 225.2 0C187.7 0 150.3 0 112.8 0C75.3 0 37.7 0 18.8 0L0 0Z" fill="#222783"></path><path d="M0 17L18.8 21.3C37.7 25.7 75.3 34.3 112.8 35.2C150.3 36 187.7 29 225.2 24.8C262.7 20.7 300.3 19.3 337.8 18.8C375.3 18.3 412.7 18.7 450.2 20.2C487.7 21.7 525.3 24.3 562.8 24.2C600.3 24 637.7 21 675.2 21.5C712.7 22 750.3 26 787.8 27.7C825.3 29.3 862.7 28.7 881.3 28.3L900 28L900 0L881.3 0C862.7 0 825.3 0 787.8 0C750.3 0 712.7 0 675.2 0C637.7 0 600.3 0 562.8 0C525.3 0 487.7 0 450.2 0C412.7 0 375.3 0 337.8 0C300.3 0 262.7 0 225.2 0C187.7 0 150.3 0 112.8 0C75.3 0 37.7 0 18.8 0L0 0Z" fill="#1b1f6e"></path></svg>